<?xml version="1.0" standalone="no"?>
<!DOCTYPE svg PUBLIC "-//W3C//DTD SVG 20010904//EN"
 "http://www.w3.org/TR/2001/REC-SVG-20010904/DTD/svg10.dtd">
<svg version="1.0" xmlns="http://www.w3.org/2000/svg"
 width="144.000000pt" height="144.000000pt" viewBox="0 0 144.000000 144.000000"
 preserveAspectRatio="xMidYMid meet">
<metadata>
Created by potrace 1.11, written by Peter Selinger 2001-2013
</metadata>
<g transform="translate(0.000000,144.000000) scale(0.100000,-0.100000)"
fill="#000000" stroke="none">
<path d="M1249 1404 c-60 -31 -142 -163 -317 -509 -127 -249 -197 -364 -245
-399 l-28 -20 -38 42 c-21 23 -44 43 -50 43 -6 1 -21 2 -33 3 -18 1 -23 7 -21
26 4 67 14 199 18 230 2 19 7 71 10 115 3 44 8 96 10 115 2 19 7 60 10 90 3
30 10 73 15 95 29 126 -13 176 -82 96 -125 -147 -525 -1190 -475 -1240 31 -31
47 -8 71 96 37 167 250 727 361 948 l65 130 -6 -54 c-3 -30 -7 -61 -9 -70 -3
-15 -9 -73 -20 -198 -7 -73 -12 -135 -20 -248 -6 -86 -14 -149 -18 -150 -1 0
-26 -13 -54 -28 -29 -15 -60 -27 -68 -27 -22 0 -57 -39 -51 -57 4 -8 9 -36 12
-62 10 -83 55 -284 71 -316 26 -49 43 -55 72 -26 25 25 37 83 61 296 18 161
19 165 25 175 12 19 29 10 71 -35 47 -52 78 -58 127 -23 71 51 120 128 291
463 107 210 226 415 241 415 10 0 -30 -88 -156 -340 -152 -303 -170 -350 -150
-398 27 -65 91 -79 211 -47 36 10 89 17 118 16 40 -1 54 2 59 15 18 47 -72 59
-201 25 -67 -18 -83 -19 -105 -8 -46 23 -33 62 112 353 176 352 204 424 179
460 -13 19 -37 22 -63 8z m-804 -946 c-2 -13 -9 -70 -15 -128 -6 -58 -12 -114
-15 -125 -2 -11 -4 -32 -4 -47 -1 -16 -5 -28 -10 -28 -9 0 -47 171 -57 252
l-5 46 53 25 c29 14 54 26 55 26 1 1 0 -9 -2 -21z"/>
</g>
</svg>
